<svg width="74" height="26" viewBox="0 0 74 26" fill="none" xmlns="http://www.w3.org/2000/svg">
<rect width="74" height="26" fill="white"/>
<rect width="74" height="26" rx="2" fill="#4D4D4D"/>
<path d="M16.75 16.47H29.035V17.505H16.75V16.47ZM22.24 13.56H23.485V16.905H22.24V13.56ZM18.235 6.615H27.52V10.725H19.51V13.44H18.28V9.72H26.29V7.62H18.235V6.615ZM18.28 12.915H27.835V13.935H18.28V12.915ZM31.8688 7.05H40.5988V8.055H31.8688V7.05ZM30.5488 16.155H42.8038V17.19H30.5488V16.155ZM39.9388 7.05H41.1538V8.4C41.1538 10.14 41.1538 12.075 40.6438 15L39.3988 14.88C39.9388 12.105 39.9388 10.08 39.9388 8.4V7.05ZM54.2027 5.625H55.4627V15.525H54.2027V5.625ZM46.7477 17.85H55.8677V18.87H46.7477V17.85ZM46.7477 14.505H47.9777V18.195H46.7477V14.505ZM48.1877 6.555C50.2127 6.555 51.7127 7.935 51.7127 9.9C51.7127 11.85 50.2127 13.245 48.1877 13.245C46.1627 13.245 44.6477 11.85 44.6477 9.9C44.6477 7.935 46.1627 6.555 48.1877 6.555ZM48.1877 7.635C46.8677 7.635 45.8627 8.565 45.8627 9.9C45.8627 11.22 46.8677 12.15 48.1877 12.15C49.5077 12.15 50.5127 11.22 50.5127 9.9C50.5127 8.565 49.5077 7.635 48.1877 7.635Z" fill="white"/>
</svg>
